<mxfile host="app.diagrams.net" agent="Mozilla/5.0 (Windows NT 10.0; Win64; x64) AppleWebKit/537.36 (KHTML, like Gecko) Chrome/128.0.0.0 Safari/537.36" version="24.7.12">
  <diagram name="Page-1" id="YSWBrs7sO2cTLeiLAjhf">
    <mxGraphModel grid="1" page="1" gridSize="10" guides="1" tooltips="1" connect="1" arrows="1" fold="1" pageScale="1" pageWidth="850" pageHeight="1100" math="0" shadow="0">
      <root>
        <mxCell id="0" />
        <mxCell id="1" parent="0" />
        <mxCell id="gEqKc2YZkeKMVcWGpaLb-1" value="Student" style="swimlane;fontStyle=1;align=center;verticalAlign=top;childLayout=stackLayout;horizontal=1;startSize=26;horizontalStack=0;resizeParent=1;resizeParentMax=0;resizeLast=0;collapsible=1;marginBottom=0;whiteSpace=wrap;html=1;" vertex="1" parent="1">
          <mxGeometry x="50" y="81" width="160" height="150" as="geometry" />
        </mxCell>
        <mxCell id="gEqKc2YZkeKMVcWGpaLb-2" value="- studentID: int&lt;div&gt;- name: string&lt;/div&gt;&lt;div&gt;- email: string&lt;/div&gt;" style="text;strokeColor=none;fillColor=none;align=left;verticalAlign=top;spacingLeft=4;spacingRight=4;overflow=hidden;rotatable=0;points=[[0,0.5],[1,0.5]];portConstraint=eastwest;whiteSpace=wrap;html=1;" vertex="1" parent="gEqKc2YZkeKMVcWGpaLb-1">
          <mxGeometry y="26" width="160" height="54" as="geometry" />
        </mxCell>
        <mxCell id="gEqKc2YZkeKMVcWGpaLb-3" value="" style="line;strokeWidth=1;fillColor=none;align=left;verticalAlign=middle;spacingTop=-1;spacingLeft=3;spacingRight=3;rotatable=0;labelPosition=right;points=[];portConstraint=eastwest;strokeColor=inherit;" vertex="1" parent="gEqKc2YZkeKMVcWGpaLb-1">
          <mxGeometry y="80" width="160" height="8" as="geometry" />
        </mxCell>
        <mxCell id="gEqKc2YZkeKMVcWGpaLb-4" value="+ enrollCourse():int&lt;div&gt;+ dropCourse():int&lt;/div&gt;" style="text;strokeColor=none;fillColor=none;align=left;verticalAlign=top;spacingLeft=4;spacingRight=4;overflow=hidden;rotatable=0;points=[[0,0.5],[1,0.5]];portConstraint=eastwest;whiteSpace=wrap;html=1;" vertex="1" parent="gEqKc2YZkeKMVcWGpaLb-1">
          <mxGeometry y="88" width="160" height="62" as="geometry" />
        </mxCell>
        <mxCell id="gEqKc2YZkeKMVcWGpaLb-5" value="Course" style="swimlane;fontStyle=1;align=center;verticalAlign=top;childLayout=stackLayout;horizontal=1;startSize=26;horizontalStack=0;resizeParent=1;resizeParentMax=0;resizeLast=0;collapsible=1;marginBottom=0;whiteSpace=wrap;html=1;" vertex="1" parent="1">
          <mxGeometry x="300" y="280" width="160" height="150" as="geometry" />
        </mxCell>
        <mxCell id="gEqKc2YZkeKMVcWGpaLb-6" value="- courseCode: string&lt;div&gt;- courseTitle: string&lt;/div&gt;&lt;div&gt;- credits: int&lt;/div&gt;" style="text;strokeColor=none;fillColor=none;align=left;verticalAlign=top;spacingLeft=4;spacingRight=4;overflow=hidden;rotatable=0;points=[[0,0.5],[1,0.5]];portConstraint=eastwest;whiteSpace=wrap;html=1;" vertex="1" parent="gEqKc2YZkeKMVcWGpaLb-5">
          <mxGeometry y="26" width="160" height="54" as="geometry" />
        </mxCell>
        <mxCell id="gEqKc2YZkeKMVcWGpaLb-7" value="" style="line;strokeWidth=1;fillColor=none;align=left;verticalAlign=middle;spacingTop=-1;spacingLeft=3;spacingRight=3;rotatable=0;labelPosition=right;points=[];portConstraint=eastwest;strokeColor=inherit;" vertex="1" parent="gEqKc2YZkeKMVcWGpaLb-5">
          <mxGeometry y="80" width="160" height="8" as="geometry" />
        </mxCell>
        <mxCell id="gEqKc2YZkeKMVcWGpaLb-8" value="+ addStudent(): void&lt;div&gt;+ removeStudent (): void&lt;/div&gt;" style="text;strokeColor=none;fillColor=none;align=left;verticalAlign=top;spacingLeft=4;spacingRight=4;overflow=hidden;rotatable=0;points=[[0,0.5],[1,0.5]];portConstraint=eastwest;whiteSpace=wrap;html=1;" vertex="1" parent="gEqKc2YZkeKMVcWGpaLb-5">
          <mxGeometry y="88" width="160" height="62" as="geometry" />
        </mxCell>
        <mxCell id="gEqKc2YZkeKMVcWGpaLb-9" value="Professor" style="swimlane;fontStyle=1;align=center;verticalAlign=top;childLayout=stackLayout;horizontal=1;startSize=26;horizontalStack=0;resizeParent=1;resizeParentMax=0;resizeLast=0;collapsible=1;marginBottom=0;whiteSpace=wrap;html=1;" vertex="1" parent="1">
          <mxGeometry x="520" y="80" width="160" height="130" as="geometry" />
        </mxCell>
        <mxCell id="gEqKc2YZkeKMVcWGpaLb-10" value="- professorID: int&lt;div&gt;- name: string&lt;/div&gt;&lt;div&gt;- department: string&lt;/div&gt;&lt;div&gt;&lt;br&gt;&lt;/div&gt;" style="text;strokeColor=none;fillColor=none;align=left;verticalAlign=top;spacingLeft=4;spacingRight=4;overflow=hidden;rotatable=0;points=[[0,0.5],[1,0.5]];portConstraint=eastwest;whiteSpace=wrap;html=1;" vertex="1" parent="gEqKc2YZkeKMVcWGpaLb-9">
          <mxGeometry y="26" width="160" height="54" as="geometry" />
        </mxCell>
        <mxCell id="gEqKc2YZkeKMVcWGpaLb-11" value="" style="line;strokeWidth=1;fillColor=none;align=left;verticalAlign=middle;spacingTop=-1;spacingLeft=3;spacingRight=3;rotatable=0;labelPosition=right;points=[];portConstraint=eastwest;strokeColor=inherit;" vertex="1" parent="gEqKc2YZkeKMVcWGpaLb-9">
          <mxGeometry y="80" width="160" height="8" as="geometry" />
        </mxCell>
        <mxCell id="gEqKc2YZkeKMVcWGpaLb-12" value="+ assignCourse(): void" style="text;strokeColor=none;fillColor=none;align=left;verticalAlign=top;spacingLeft=4;spacingRight=4;overflow=hidden;rotatable=0;points=[[0,0.5],[1,0.5]];portConstraint=eastwest;whiteSpace=wrap;html=1;" vertex="1" parent="gEqKc2YZkeKMVcWGpaLb-9">
          <mxGeometry y="88" width="160" height="42" as="geometry" />
        </mxCell>
        <mxCell id="gEqKc2YZkeKMVcWGpaLb-14" value="" style="endArrow=block;endFill=1;html=1;edgeStyle=orthogonalEdgeStyle;align=left;verticalAlign=top;rounded=0;exitX=1.007;exitY=0.15;exitDx=0;exitDy=0;exitPerimeter=0;entryX=0.313;entryY=0;entryDx=0;entryDy=0;entryPerimeter=0;" edge="1" parent="1" target="gEqKc2YZkeKMVcWGpaLb-5">
          <mxGeometry x="-1" relative="1" as="geometry">
            <mxPoint x="210.03" y="83.48" as="sourcePoint" />
            <mxPoint x="360.66999999999996" y="258.63" as="targetPoint" />
            <Array as="points">
              <mxPoint x="210" y="90" />
              <mxPoint x="350" y="90" />
            </Array>
            <mxPoint as="offset" />
          </mxGeometry>
        </mxCell>
        <mxCell id="gEqKc2YZkeKMVcWGpaLb-15" value="1..*" style="edgeLabel;resizable=0;html=1;align=left;verticalAlign=bottom;" connectable="0" vertex="1" parent="gEqKc2YZkeKMVcWGpaLb-14">
          <mxGeometry x="-1" relative="1" as="geometry">
            <mxPoint x="20" y="7" as="offset" />
          </mxGeometry>
        </mxCell>
        <mxCell id="gEqKc2YZkeKMVcWGpaLb-16" value="" style="endArrow=block;endFill=1;html=1;edgeStyle=orthogonalEdgeStyle;align=left;verticalAlign=top;rounded=0;exitX=-0.007;exitY=0.07;exitDx=0;exitDy=0;exitPerimeter=0;entryX=0.438;entryY=0;entryDx=0;entryDy=0;entryPerimeter=0;" edge="1" parent="1" source="gEqKc2YZkeKMVcWGpaLb-9" target="gEqKc2YZkeKMVcWGpaLb-5">
          <mxGeometry x="-0.8395" y="11" relative="1" as="geometry">
            <mxPoint x="490" y="90" as="sourcePoint" />
            <mxPoint x="370" y="260" as="targetPoint" />
            <Array as="points">
              <mxPoint x="370" y="89" />
            </Array>
            <mxPoint as="offset" />
          </mxGeometry>
        </mxCell>
        <mxCell id="gEqKc2YZkeKMVcWGpaLb-17" value="1" style="edgeLabel;resizable=0;html=1;align=left;verticalAlign=bottom;" connectable="0" vertex="1" parent="gEqKc2YZkeKMVcWGpaLb-16">
          <mxGeometry x="-1" relative="1" as="geometry">
            <mxPoint x="-18" y="1" as="offset" />
          </mxGeometry>
        </mxCell>
        <mxCell id="gEqKc2YZkeKMVcWGpaLb-21" value="1..*" style="edgeLabel;resizable=0;html=1;align=left;verticalAlign=bottom;" connectable="0" vertex="1" parent="1">
          <mxGeometry x="330" y="280.0000000000002" as="geometry">
            <mxPoint x="-4" as="offset" />
          </mxGeometry>
        </mxCell>
        <mxCell id="gEqKc2YZkeKMVcWGpaLb-22" value="1..*" style="edgeLabel;resizable=0;html=1;align=left;verticalAlign=bottom;" connectable="0" vertex="1" parent="1">
          <mxGeometry x="380" y="290.0000000000002" as="geometry">
            <mxPoint x="5" y="-12" as="offset" />
          </mxGeometry>
        </mxCell>
        <mxCell id="f_B1khLp_I1XQz9UkXei-1" value="&lt;p style=&quot;margin:0px;margin-top:4px;text-align:center;&quot;&gt;&lt;b&gt;COMMUTER&lt;/b&gt;&lt;/p&gt;" style="verticalAlign=top;align=left;overflow=fill;html=1;whiteSpace=wrap;" vertex="1" parent="1">
          <mxGeometry x="90" y="470" width="160" height="570" as="geometry" />
        </mxCell>
        <mxCell id="f_B1khLp_I1XQz9UkXei-2" value="" style="ellipse;html=1;shape=startState;fillColor=#000000;strokeColor=#ff0000;" vertex="1" parent="1">
          <mxGeometry x="155" y="500" width="30" height="30" as="geometry" />
        </mxCell>
        <mxCell id="f_B1khLp_I1XQz9UkXei-3" value="" style="edgeStyle=orthogonalEdgeStyle;html=1;verticalAlign=bottom;endArrow=open;endSize=8;strokeColor=#ff0000;rounded=0;" edge="1" parent="1" source="f_B1khLp_I1XQz9UkXei-2">
          <mxGeometry relative="1" as="geometry">
            <mxPoint x="170" y="550" as="targetPoint" />
          </mxGeometry>
        </mxCell>
        <mxCell id="f_B1khLp_I1XQz9UkXei-4" value="start vending machine" style="rounded=1;arcSize=10;whiteSpace=wrap;html=1;align=center;" vertex="1" parent="1">
          <mxGeometry x="135" y="550" width="70" height="40" as="geometry" />
        </mxCell>
        <mxCell id="f_B1khLp_I1XQz9UkXei-5" value="&lt;p style=&quot;margin:0px;margin-top:4px;text-align:center;&quot;&gt;&lt;b&gt;VENDING MACHINE&lt;/b&gt;&lt;/p&gt;" style="verticalAlign=top;align=left;overflow=fill;html=1;whiteSpace=wrap;" vertex="1" parent="1">
          <mxGeometry x="250" y="470" width="160" height="570" as="geometry" />
        </mxCell>
        <mxCell id="f_B1khLp_I1XQz9UkXei-6" value="" style="endArrow=none;html=1;rounded=0;entryX=0.991;entryY=0.151;entryDx=0;entryDy=0;entryPerimeter=0;" edge="1" parent="1">
          <mxGeometry relative="1" as="geometry">
            <mxPoint x="90" y="500" as="sourcePoint" />
            <mxPoint x="408.5600000000002" y="501.3399999999999" as="targetPoint" />
          </mxGeometry>
        </mxCell>
        <mxCell id="f_B1khLp_I1XQz9UkXei-7" value="Ask user information" style="rounded=1;arcSize=10;whiteSpace=wrap;html=1;align=center;" vertex="1" parent="1">
          <mxGeometry x="295" y="550" width="70" height="40" as="geometry" />
        </mxCell>
        <mxCell id="f_B1khLp_I1XQz9UkXei-8" value="Process Information" style="rounded=1;arcSize=10;whiteSpace=wrap;html=1;align=center;" vertex="1" parent="1">
          <mxGeometry x="290" y="610" width="70" height="40" as="geometry" />
        </mxCell>
        <mxCell id="f_B1khLp_I1XQz9UkXei-9" value="Request Payment Option" style="rounded=1;arcSize=10;whiteSpace=wrap;html=1;align=center;" vertex="1" parent="1">
          <mxGeometry x="290" y="730" width="70" height="40" as="geometry" />
        </mxCell>
        <mxCell id="f_B1khLp_I1XQz9UkXei-10" value="Choose Payment Option" style="rounded=1;arcSize=10;whiteSpace=wrap;html=1;align=center;" vertex="1" parent="1">
          <mxGeometry x="134.5" y="730" width="70" height="40" as="geometry" />
        </mxCell>
        <mxCell id="f_B1khLp_I1XQz9UkXei-11" value="" style="html=1;verticalAlign=bottom;endArrow=block;curved=0;rounded=0;entryX=1;entryY=0.5;entryDx=0;entryDy=0;exitX=0;exitY=0.5;exitDx=0;exitDy=0;" edge="1" parent="1" source="f_B1khLp_I1XQz9UkXei-9" target="f_B1khLp_I1XQz9UkXei-10">
          <mxGeometry width="80" relative="1" as="geometry">
            <mxPoint x="215" y="599.84" as="sourcePoint" />
            <mxPoint x="300" y="600" as="targetPoint" />
          </mxGeometry>
        </mxCell>
        <mxCell id="f_B1khLp_I1XQz9UkXei-12" value="" style="html=1;verticalAlign=bottom;endArrow=block;curved=0;rounded=0;exitX=0.5;exitY=1;exitDx=0;exitDy=0;entryX=0.5;entryY=0;entryDx=0;entryDy=0;" edge="1" parent="1" source="f_B1khLp_I1XQz9UkXei-25" target="f_B1khLp_I1XQz9UkXei-9">
          <mxGeometry width="80" relative="1" as="geometry">
            <mxPoint x="335" y="620" as="sourcePoint" />
            <mxPoint x="335" y="640" as="targetPoint" />
          </mxGeometry>
        </mxCell>
        <mxCell id="f_B1khLp_I1XQz9UkXei-13" value="Payment Done" style="rounded=1;arcSize=10;whiteSpace=wrap;html=1;align=center;" vertex="1" parent="1">
          <mxGeometry x="134.5" y="810" width="70" height="40" as="geometry" />
        </mxCell>
        <mxCell id="f_B1khLp_I1XQz9UkXei-14" value="" style="html=1;verticalAlign=bottom;endArrow=block;curved=0;rounded=0;entryX=0.5;entryY=0;entryDx=0;entryDy=0;exitX=0.5;exitY=1;exitDx=0;exitDy=0;" edge="1" parent="1" source="f_B1khLp_I1XQz9UkXei-10" target="f_B1khLp_I1XQz9UkXei-13">
          <mxGeometry width="80" relative="1" as="geometry">
            <mxPoint x="300" y="730" as="sourcePoint" />
            <mxPoint x="215" y="730" as="targetPoint" />
          </mxGeometry>
        </mxCell>
        <mxCell id="f_B1khLp_I1XQz9UkXei-15" value="Ticket Dispensed" style="rounded=1;arcSize=10;whiteSpace=wrap;html=1;align=center;" vertex="1" parent="1">
          <mxGeometry x="290" y="886" width="70" height="40" as="geometry" />
        </mxCell>
        <mxCell id="f_B1khLp_I1XQz9UkXei-16" value="Ticket" style="html=1;whiteSpace=wrap;" vertex="1" parent="1">
          <mxGeometry x="130" y="890" width="75" height="30" as="geometry" />
        </mxCell>
        <mxCell id="f_B1khLp_I1XQz9UkXei-17" value="" style="html=1;verticalAlign=bottom;endArrow=block;curved=0;rounded=0;entryX=1;entryY=0.5;entryDx=0;entryDy=0;exitX=0;exitY=0.5;exitDx=0;exitDy=0;" edge="1" parent="1" source="f_B1khLp_I1XQz9UkXei-15" target="f_B1khLp_I1XQz9UkXei-16">
          <mxGeometry width="80" relative="1" as="geometry">
            <mxPoint x="215" y="740" as="sourcePoint" />
            <mxPoint x="301" y="805" as="targetPoint" />
          </mxGeometry>
        </mxCell>
        <mxCell id="f_B1khLp_I1XQz9UkXei-18" value="" style="ellipse;html=1;shape=endState;fillColor=#000000;strokeColor=#ff0000;" vertex="1" parent="1">
          <mxGeometry x="150" y="1000" width="30" height="30" as="geometry" />
        </mxCell>
        <mxCell id="f_B1khLp_I1XQz9UkXei-19" value="" style="html=1;verticalAlign=bottom;endArrow=block;curved=0;rounded=0;exitX=0.5;exitY=1;exitDx=0;exitDy=0;" edge="1" parent="1" source="f_B1khLp_I1XQz9UkXei-33" target="f_B1khLp_I1XQz9UkXei-18">
          <mxGeometry width="80" relative="1" as="geometry">
            <mxPoint x="300" y="860" as="sourcePoint" />
            <mxPoint x="215" y="860" as="targetPoint" />
          </mxGeometry>
        </mxCell>
        <mxCell id="f_B1khLp_I1XQz9UkXei-20" value="" style="html=1;verticalAlign=bottom;endArrow=block;curved=0;rounded=0;exitX=0.999;exitY=0.469;exitDx=0;exitDy=0;entryX=0;entryY=0.5;entryDx=0;entryDy=0;exitPerimeter=0;entryPerimeter=0;" edge="1" parent="1" source="f_B1khLp_I1XQz9UkXei-13" target="f_B1khLp_I1XQz9UkXei-27">
          <mxGeometry width="80" relative="1" as="geometry">
            <mxPoint x="334.71000000000015" y="730" as="sourcePoint" />
            <mxPoint x="325.29823529411783" y="890" as="targetPoint" />
          </mxGeometry>
        </mxCell>
        <mxCell id="f_B1khLp_I1XQz9UkXei-21" value="" style="html=1;verticalAlign=bottom;endArrow=block;curved=0;rounded=0;exitX=1;exitY=0.523;exitDx=0;exitDy=0;exitPerimeter=0;entryX=0;entryY=0.5;entryDx=0;entryDy=0;" edge="1" parent="1" source="f_B1khLp_I1XQz9UkXei-4" target="f_B1khLp_I1XQz9UkXei-7">
          <mxGeometry width="80" relative="1" as="geometry">
            <mxPoint x="340" y="620" as="sourcePoint" />
            <mxPoint x="290" y="588" as="targetPoint" />
          </mxGeometry>
        </mxCell>
        <mxCell id="f_B1khLp_I1XQz9UkXei-22" value="Give user information" style="rounded=1;arcSize=10;whiteSpace=wrap;html=1;align=center;" vertex="1" parent="1">
          <mxGeometry x="135" y="610" width="70" height="40" as="geometry" />
        </mxCell>
        <mxCell id="f_B1khLp_I1XQz9UkXei-23" value="" style="html=1;verticalAlign=bottom;endArrow=block;curved=0;rounded=0;exitX=0.021;exitY=0.976;exitDx=0;exitDy=0;entryX=1;entryY=0.5;entryDx=0;entryDy=0;exitPerimeter=0;" edge="1" parent="1" source="f_B1khLp_I1XQz9UkXei-7" target="f_B1khLp_I1XQz9UkXei-22">
          <mxGeometry width="80" relative="1" as="geometry">
            <mxPoint x="212" y="598" as="sourcePoint" />
            <mxPoint x="305" y="600" as="targetPoint" />
          </mxGeometry>
        </mxCell>
        <mxCell id="f_B1khLp_I1XQz9UkXei-24" value="" style="html=1;verticalAlign=bottom;endArrow=block;curved=0;rounded=0;exitX=1;exitY=0.5;exitDx=0;exitDy=0;entryX=0;entryY=0.5;entryDx=0;entryDy=0;" edge="1" parent="1" source="f_B1khLp_I1XQz9UkXei-22" target="f_B1khLp_I1XQz9UkXei-8">
          <mxGeometry width="80" relative="1" as="geometry">
            <mxPoint x="305" y="620" as="sourcePoint" />
            <mxPoint x="215" y="660" as="targetPoint" />
          </mxGeometry>
        </mxCell>
        <mxCell id="f_B1khLp_I1XQz9UkXei-25" value="Calculate payment" style="rounded=1;arcSize=10;whiteSpace=wrap;html=1;align=center;" vertex="1" parent="1">
          <mxGeometry x="290" y="670" width="70" height="40" as="geometry" />
        </mxCell>
        <mxCell id="f_B1khLp_I1XQz9UkXei-26" value="" style="html=1;verticalAlign=bottom;endArrow=block;curved=0;rounded=0;exitX=0.5;exitY=1;exitDx=0;exitDy=0;entryX=0.5;entryY=0;entryDx=0;entryDy=0;" edge="1" parent="1">
          <mxGeometry width="80" relative="1" as="geometry">
            <mxPoint x="324.81999999999994" y="650" as="sourcePoint" />
            <mxPoint x="324.81999999999994" y="670" as="targetPoint" />
          </mxGeometry>
        </mxCell>
        <mxCell id="f_B1khLp_I1XQz9UkXei-27" value="Payment done?" style="strokeWidth=2;html=1;shape=mxgraph.flowchart.decision;whiteSpace=wrap;" vertex="1" parent="1">
          <mxGeometry x="290" y="800" width="70" height="60" as="geometry" />
        </mxCell>
        <mxCell id="f_B1khLp_I1XQz9UkXei-28" value="" style="html=1;verticalAlign=bottom;endArrow=block;curved=0;rounded=0;exitX=0.5;exitY=1;exitDx=0;exitDy=0;entryX=0.5;entryY=0;entryDx=0;entryDy=0;exitPerimeter=0;" edge="1" parent="1" source="f_B1khLp_I1XQz9UkXei-27" target="f_B1khLp_I1XQz9UkXei-15">
          <mxGeometry width="80" relative="1" as="geometry">
            <mxPoint x="215" y="829" as="sourcePoint" />
            <mxPoint x="300" y="830" as="targetPoint" />
          </mxGeometry>
        </mxCell>
        <mxCell id="f_B1khLp_I1XQz9UkXei-29" value="" style="html=1;verticalAlign=bottom;endArrow=block;curved=0;rounded=0;exitX=0.5;exitY=0;exitDx=0;exitDy=0;entryX=0.5;entryY=1;entryDx=0;entryDy=0;exitPerimeter=0;" edge="1" parent="1" source="f_B1khLp_I1XQz9UkXei-27" target="f_B1khLp_I1XQz9UkXei-9">
          <mxGeometry width="80" relative="1" as="geometry">
            <mxPoint x="335" y="860" as="sourcePoint" />
            <mxPoint x="335" y="875" as="targetPoint" />
          </mxGeometry>
        </mxCell>
        <mxCell id="f_B1khLp_I1XQz9UkXei-30" value="Yes" style="text;strokeColor=none;fillColor=none;spacingLeft=4;spacingRight=4;overflow=hidden;rotatable=0;points=[[0,0.5],[1,0.5]];portConstraint=eastwest;fontSize=12;whiteSpace=wrap;html=1;" vertex="1" parent="1">
          <mxGeometry x="295" y="855" width="30" height="20" as="geometry" />
        </mxCell>
        <mxCell id="f_B1khLp_I1XQz9UkXei-31" value="No" style="text;strokeColor=none;fillColor=none;spacingLeft=4;spacingRight=4;overflow=hidden;rotatable=0;points=[[0,0.5],[1,0.5]];portConstraint=eastwest;fontSize=12;whiteSpace=wrap;html=1;" vertex="1" parent="1">
          <mxGeometry x="295" y="780" width="30" height="20" as="geometry" />
        </mxCell>
        <mxCell id="f_B1khLp_I1XQz9UkXei-32" value="" style="html=1;verticalAlign=bottom;endArrow=block;curved=0;rounded=0;exitX=0.5;exitY=1;exitDx=0;exitDy=0;entryX=0.534;entryY=0.01;entryDx=0;entryDy=0;entryPerimeter=0;" edge="1" parent="1" source="f_B1khLp_I1XQz9UkXei-16" target="f_B1khLp_I1XQz9UkXei-33">
          <mxGeometry width="80" relative="1" as="geometry">
            <mxPoint x="168" y="905" as="sourcePoint" />
            <mxPoint x="168" y="970" as="targetPoint" />
          </mxGeometry>
        </mxCell>
        <mxCell id="f_B1khLp_I1XQz9UkXei-33" value="Download Ticket" style="rounded=1;arcSize=10;whiteSpace=wrap;html=1;align=center;" vertex="1" parent="1">
          <mxGeometry x="130" y="940" width="70" height="40" as="geometry" />
        </mxCell>
      </root>
    </mxGraphModel>
  </diagram>
</mxfile>
